<?xml version="1.0" standalone="no"?>
<!DOCTYPE svg PUBLIC "-//W3C//DTD SVG 1.1//EN" "http://www.w3.org/Graphics/SVG/1.1/DTD/svg11.dtd" >
<svg>
<metadata>
Created by FontForge 20110222 at Mon Mar  7 13:07:02 2011
 By www-data
Generated by Fontographer 3.5
</metadata>
<defs>
<font id="EfromLight" horiz-adv-x="620" >
  <font-face 
    font-family="EfromLight"
    font-weight="200"
    font-stretch="normal"
    units-per-em="1000"
    panose-1="2 0 3 3 0 0 0 0 0 0"
    ascent="800"
    descent="-200"
    x-height="462"
    cap-height="754"
    bbox="-121 -303 1128 1005"
    underline-thickness="35"
    underline-position="-150"
    unicode-range="U+0020-2122"
  />
    <missing-glyph />
    <glyph glyph-name="space" unicode=" " horiz-adv-x="310" 
 />
    <glyph glyph-name="exclam" unicode="!" horiz-adv-x="320" 
d="M159 72c23 0 41 -18 41 -41s-18 -41 -41 -41s-41 18 -41 41s18 41 41 41zM184 754v-611h-48v611h48z" />
    <glyph glyph-name="quotedbl" unicode="&#x22;" horiz-adv-x="278" 
d="M221 754l-10 -240h-28l-10 240h48zM105 754l-10 -240h-28l-10 240h48z" />
    <glyph glyph-name="numbersign" unicode="#" 
d="M59 276h128l24 162h-123v48h131l32 213h46l-32 -213h139l32 213h46l-32 -213h115v-48h-123l-24 -162h118v-48h-125l-35 -228h-46l35 228h-139l-35 -228h-46l35 228h-121v48zM233 276h139l24 162h-139z" />
    <glyph glyph-name="dollar" unicode="$" 
d="M538 209c0 -117 -90 -196 -192 -216v-117h-44v114c-103 0 -187 64 -220 162l43 20c25 -82 97 -137 178 -137c103 0 187 79 187 176c0 75 -59 111 -180 170c-141 66 -184 105 -184 192c0 86 59 190 176 190v107h44v-108c62 -7 120 -46 155 -104l-34 -28
c-44 76 -116 89 -151 89c-79 0 -142 -64 -142 -143c0 -64 39 -100 161 -155c165 -78 203 -118 203 -212z" />
    <glyph glyph-name="percent" unicode="%" horiz-adv-x="664" 
d="M526 754h45l-436 -754h-45zM181 761c83 0 152 -67 152 -148c0 -82 -69 -148 -153 -148c-85 0 -152 65 -152 148c0 82 69 148 153 148zM180 719c-60 0 -110 -48 -110 -106c0 -61 47 -106 112 -106c61 0 109 47 109 108c0 57 -50 104 -111 104zM484 287
c88 0 152 -71 152 -147c0 -81 -69 -148 -152 -148c-85 0 -153 65 -153 148c0 80 69 147 153 147zM484 245c-61 0 -111 -48 -111 -105c0 -59 50 -106 112 -106c60 0 109 49 109 108c0 56 -51 103 -110 103z" />
    <glyph glyph-name="ampersand" unicode="&#x26;" horiz-adv-x="642" 
d="M634 273l-61 -71l-45 -47l116 -155h-52l-94 127c-104 -97 -195 -140 -279 -140c-117 0 -196 79 -196 195c0 103 67 182 230 276l-33 44c-29 36 -47 84 -47 124c0 79 68 142 149 142c57 0 133 -44 133 -138c0 -73 -38 -125 -139 -187l185 -253l40 40l56 63zM289 481
c97 67 119 95 119 148c0 51 -41 94 -91 94c-53 0 -97 -46 -97 -103c0 -30 8 -52 29 -85zM280 421c-149 -85 -210 -154 -210 -235c0 -93 61 -156 149 -156c72 0 140 36 252 133z" />
    <glyph glyph-name="quotesingle" unicode="'" horiz-adv-x="222" 
d="M135 754l-10 -240h-28l-10 240h48z" />
    <glyph glyph-name="parenleft" unicode="(" horiz-adv-x="240" 
d="M111 284c0 -170 25 -346 63 -463l-37 -25c-40 99 -71 306 -71 488c0 187 29 383 71 488l37 -25c-36 -109 -63 -305 -63 -463z" />
    <glyph glyph-name="parenright" unicode=")" horiz-adv-x="240" 
d="M129 284c0 170 -25 346 -63 463l37 25c38 -99 71 -290 71 -488c0 -180 -30 -382 -71 -488l-37 25c36 109 63 305 63 463z" />
    <glyph glyph-name="asterisk" unicode="*" horiz-adv-x="619" 
d="M311 538l-85 -122l-40 30l90 117l-142 43l15 47l140 -48l-3 148h50l-3 -148l140 48l15 -47l-142 -43l90 -117l-40 -30z" />
    <glyph glyph-name="plus" unicode="+" 
d="M287 281v227h48v-227h233v-48h-233v-230h-48v230h-233v48h233z" />
    <glyph glyph-name="comma" unicode="," horiz-adv-x="310" 
d="M198 60l-83 -226l-30 11l68 229z" />
    <glyph glyph-name="hyphen" unicode="-" horiz-adv-x="190" 
d="M0 343h190v-45h-190v45z" />
    <glyph glyph-name="period" unicode="." horiz-adv-x="310" 
d="M155 72c23 0 41 -18 41 -41s-18 -41 -41 -41s-41 18 -41 41s18 41 41 41z" />
    <glyph glyph-name="slash" unicode="/" horiz-adv-x="640" 
d="M37 -120l533 946h47l-533 -946h-47z" />
    <glyph glyph-name="zero" unicode="0" 
d="M582 377c0 -216 -116 -387 -273 -387s-273 165 -273 387c0 221 117 387 273 387c155 0 273 -169 273 -387zM533 377c0 193 -97 341 -224 341c-129 0 -224 -145 -224 -341c0 -195 96 -341 224 -341c130 0 224 145 224 341z" />
    <glyph glyph-name="one" unicode="1" 
d="M355 0h-46v709h-121l23 45h144v-754z" />
    <glyph glyph-name="two" unicode="2" 
d="M68 0l310 339c69 73 111 153 111 208c0 97 -80 172 -182 172c-100 0 -174 -76 -174 -178h-48c0 133 93 223 231 223c124 0 222 -98 222 -222c0 -75 -49 -160 -151 -262l-212 -235h359v-45h-466z" />
    <glyph glyph-name="three" unicode="3" 
d="M167 576h-48c0 112 77 188 190 188c117 0 201 -81 201 -195c0 -73 -42 -139 -113 -174c102 -38 123 -130 123 -187c0 -123 -95 -218 -218 -218c-122 0 -211 82 -211 195h49c0 -84 70 -150 158 -150c97 0 174 77 174 174c0 95 -71 161 -170 161v45c90 0 160 69 160 157
c0 83 -66 147 -151 147c-84 0 -136 -52 -144 -143z" />
    <glyph glyph-name="four" unicode="4" 
d="M467 788v-600h106v-45h-106v-143h-46v143h-409v7zM421 642l-325 -454h325v454z" />
    <glyph glyph-name="five" unicode="5" 
d="M531 754v-45h-252l-64 -204l59 8c148 0 256 -111 256 -262c0 -145 -122 -261 -273 -261c-90 0 -180 49 -225 124l46 18c32 -53 110 -97 178 -97c128 0 225 96 225 224c0 117 -97 209 -219 209c-40 0 -79 -11 -116 -33l98 319h287z" />
    <glyph glyph-name="six" unicode="6" 
d="M578 260c0 -151 -118 -270 -267 -270c-148 0 -269 112 -269 253c0 106 0 107 298 521l39 -29c-124 -176 -129 -182 -172 -241c32 16 68 24 107 24c143 0 264 -118 264 -258zM90 253c0 -120 98 -217 221 -217c122 0 218 95 218 217s-96 220 -216 220
c-125 0 -223 -96 -223 -220z" />
    <glyph glyph-name="seven" unicode="7" 
d="M618 754l-542 -762l-37 30l488 687h-457v45h548z" />
    <glyph glyph-name="eight" unicode="8" 
d="M311 369c-95 0 -171 -74 -171 -168c0 -92 76 -166 171 -166s170 74 170 168c0 92 -76 166 -170 166zM311 719c-86 0 -155 -70 -155 -158c0 -80 71 -147 155 -147c85 0 153 67 153 151c0 83 -71 154 -153 154zM215 391c-71 42 -107 101 -107 172c0 114 86 201 203 201
c118 0 202 -86 202 -207c0 -64 -46 -133 -108 -164c76 -33 125 -108 125 -193c0 -116 -98 -210 -219 -210c-124 0 -220 90 -220 206c0 94 47 166 124 195z" />
    <glyph glyph-name="nine" unicode="9" 
d="M43 495c0 151 118 269 269 269c143 0 265 -112 265 -261c0 -96 0 -97 -297 -512l-39 30l170 240c-32 -15 -67 -23 -106 -23c-143 0 -262 116 -262 257zM530 499c0 123 -97 220 -220 220c-122 0 -218 -95 -218 -217c0 -123 94 -219 215 -219c122 0 223 97 223 216z" />
    <glyph glyph-name="colon" unicode=":" horiz-adv-x="310" 
d="M156 471c23 0 41 -18 41 -41s-18 -41 -41 -41s-41 18 -41 41s18 41 41 41zM156 72c23 0 41 -18 41 -41s-18 -41 -41 -41s-41 18 -41 41s18 41 41 41z" />
    <glyph glyph-name="semicolon" unicode=";" horiz-adv-x="310" 
d="M165 471c23 0 41 -18 41 -41s-18 -41 -41 -41s-41 18 -41 41s18 41 41 41zM199 60l-83 -226l-30 11l68 229z" />
    <glyph glyph-name="less" unicode="&#x3c;" 
d="M99 255l468 -211v-45l-514 231v50l514 231v-45z" />
    <glyph glyph-name="equal" unicode="=" 
d="M54 315v48h511v-48h-511zM54 147v48h511v-48h-511z" />
    <glyph glyph-name="greater" unicode="&#x3e;" 
d="M54 44l465 211l-465 211v45l512 -231v-50l-512 -231v45z" />
    <glyph glyph-name="question" unicode="?" horiz-adv-x="491" 
d="M247 764c106 0 179 -74 179 -181c0 -89 -49 -146 -146 -169s-145 -62 -145 -119c0 -70 40 -106 118 -106c61 0 94 38 101 113h49c0 -99 -62 -160 -161 -160c-88 0 -154 64 -154 148c0 79 48 131 144 154c97 23 145 67 145 131c0 85 -55 144 -133 144
c-79 0 -130 -51 -130 -130l5 -50h-46l-7 63c0 96 74 162 181 162zM244 72c23 0 41 -18 41 -41c0 -24 -17 -41 -40 -41c-24 0 -42 18 -42 41s18 41 41 41z" />
    <glyph glyph-name="at" unicode="@" horiz-adv-x="800" 
d="M417 765c193 0 343 -137 343 -319c0 -153 -113 -298 -233 -298c-36 0 -63 20 -73 52c-32 -32 -79 -50 -132 -50c-77 0 -131 63 -131 155c0 155 120 303 247 303c59 0 105 -27 122 -72l18 52h47l-107 -324c-4 -15 -6 -28 -6 -37c0 -20 11 -34 30 -34c86 0 177 130 177 255
c0 154 -132 276 -299 276c-188 0 -336 -154 -336 -349c0 -190 150 -344 334 -344c116 0 230 56 277 137h55c-49 -97 -196 -178 -325 -178c-217 0 -384 170 -384 391c0 210 170 384 376 384zM447 567c-109 0 -214 -131 -214 -262c0 -68 47 -111 103 -111c61 0 112 40 152 121
c31 62 46 118 46 167s-38 85 -87 85z" />
    <glyph glyph-name="A" unicode="A" horiz-adv-x="641" 
d="M468 292l-147 365l-148 -365h295zM635 0h-48l-100 247h-333l-100 -247h-50l317 780z" />
    <glyph glyph-name="B" unicode="B" horiz-adv-x="565" 
d="M129 367v-322h154c114 0 190 69 190 161c0 107 -69 161 -208 161h-136zM283 0h-202v754h166c129 0 204 -73 204 -198c0 -69 -31 -125 -87 -156c92 -17 157 -96 157 -191c0 -125 -96 -209 -238 -209zM129 412h120c94 0 154 56 154 144c0 102 -57 153 -171 153h-103v-297z
" />
    <glyph glyph-name="C" unicode="C" horiz-adv-x="739" 
d="M84 377c0 -183 159 -342 342 -342c97 0 181 38 253 114v-65c-73 -61 -156 -94 -236 -94c-227 0 -407 171 -407 387c0 211 178 387 393 387c96 0 183 -33 251 -97v-67c-67 78 -155 119 -256 119c-184 0 -340 -157 -340 -342z" />
    <glyph glyph-name="D" unicode="D" horiz-adv-x="652" 
d="M569 377c0 194 -143 332 -343 332h-97v-664h93c202 0 347 140 347 332zM81 754h151c227 0 385 -155 385 -377c0 -227 -159 -377 -400 -377h-136v754z" />
    <glyph glyph-name="E" unicode="E" horiz-adv-x="507" 
d="M442 0h-361v754h361v-45h-313v-274h304v-45h-304v-345h313v-45z" />
    <glyph glyph-name="F" unicode="F" horiz-adv-x="444" 
d="M129 0h-48v754h304v-45h-256v-274h247v-45h-247v-390z" />
    <glyph glyph-name="G" unicode="G" horiz-adv-x="824" 
d="M84 377c0 -188 152 -342 339 -342c174 0 317 127 317 283h-270v45h318c0 -135 -23 -205 -114 -282c-71 -61 -153 -91 -244 -91c-220 0 -394 171 -394 387c0 215 175 387 392 387c129 0 254 -67 328 -176l-39 -31c-72 105 -174 162 -291 162c-186 0 -342 -156 -342 -342z
" />
    <glyph glyph-name="H" unicode="H" horiz-adv-x="716" 
d="M81 754h48v-320h459v320h48v-754h-48v389h-459v-389h-48v754z" />
    <glyph glyph-name="I" unicode="I" horiz-adv-x="210" 
d="M129 0h-48v754h48v-754z" />
    <glyph glyph-name="J" unicode="J" horiz-adv-x="218" 
d="M89 754h48v-745c0 -112 -43 -168 -129 -168c-53 0 -109 36 -129 83l36 26c24 -39 58 -63 91 -63c55 0 83 39 83 118v749z" />
    <glyph glyph-name="K" unicode="K" horiz-adv-x="569" 
d="M129 0h-48v754h48v-352l358 352h64l-369 -363l391 -391h-63l-361 360l-20 -21v-339z" />
    <glyph glyph-name="L" unicode="L" horiz-adv-x="327" 
d="M129 754v-709h192v-45h-240v754h48z" />
    <glyph glyph-name="M" unicode="M" horiz-adv-x="897" 
d="M726 779l162 -779h-48l-127 626l-265 -651l-264 651l-127 -626h-48l162 779l277 -684z" />
    <glyph glyph-name="N" unicode="N" horiz-adv-x="843" 
d="M713 96v658h48v-777l-632 681v-658h-48v779c105 -117 184 -202 316 -342c107 -112 225 -240 316 -341z" />
    <glyph glyph-name="O" unicode="O" horiz-adv-x="854" 
d="M771 377c0 191 -151 342 -343 342c-149 0 -344 -109 -344 -342c0 -192 151 -342 344 -342c192 0 343 151 343 342zM819 377c0 -215 -173 -387 -391 -387c-220 0 -392 170 -392 387c0 215 175 387 392 387s391 -172 391 -387z" />
    <glyph glyph-name="P" unicode="P" horiz-adv-x="472" 
d="M129 403h96c102 0 173 62 173 152c0 99 -64 154 -174 154h-95v-306zM129 358v-358h-48v754h150c135 0 213 -74 213 -201c0 -120 -85 -195 -221 -195h-94z" />
    <glyph glyph-name="Q" unicode="Q" horiz-adv-x="854" 
d="M641 108l-189 201h68l156 -168c63 65 95 144 95 236c0 191 -151 342 -343 342c-149 0 -344 -109 -344 -342c0 -192 151 -342 344 -342c83 0 154 24 213 73zM807 0h-65l-70 74c-67 -56 -149 -84 -244 -84c-220 0 -392 170 -392 387c0 215 175 387 392 387
s391 -172 391 -387c0 -105 -37 -195 -111 -270z" />
    <glyph glyph-name="R" unicode="R" horiz-adv-x="488" 
d="M129 357v-357h-48v754h117c145 0 224 -72 224 -204c0 -120 -81 -193 -213 -193l246 -357h-56l-246 357h-24zM129 402h81c101 0 165 59 165 152c0 100 -62 155 -174 155h-72v-307z" />
    <glyph glyph-name="S" unicode="S" horiz-adv-x="544" 
d="M501 209c0 -122 -104 -219 -235 -219c-104 0 -189 62 -223 162l43 20c25 -82 97 -137 180 -137c103 0 187 79 187 176c0 69 -39 101 -181 170c-146 69 -185 109 -185 192c0 113 77 191 195 191c74 0 144 -41 182 -106l-34 -28c-44 76 -116 89 -151 89
c-80 0 -144 -63 -144 -143c0 -64 39 -100 162 -155c163 -77 204 -118 204 -212z" />
    <glyph glyph-name="T" unicode="T" horiz-adv-x="450" 
d="M249 0h-48v709h-196v45h439v-45h-195v-709z" />
    <glyph glyph-name="U" unicode="U" horiz-adv-x="660" 
d="M537 254v500h48v-511c0 -160 -102 -253 -255 -253c-159 0 -256 97 -256 253v511h48v-500c0 -140 75 -219 210 -219c132 0 205 78 205 219z" />
    <glyph glyph-name="V" unicode="V" horiz-adv-x="555" 
d="M502 754h47l-272 -778l-272 778h48l225 -645z" />
    <glyph glyph-name="W" unicode="W" horiz-adv-x="1105" 
d="M1045 754h47l-252 -778l-289 695l-288 -695l-249 778h46l213 -649l282 688l281 -685z" />
    <glyph glyph-name="X" unicode="X" horiz-adv-x="494" 
d="M419 754h54l-198 -369l206 -385h-51l-184 341l-182 -341h-52l206 385l-199 369h55l172 -325z" />
    <glyph glyph-name="Y" unicode="Y" horiz-adv-x="559" 
d="M501 754h53l-251 -432v-322h-48v322l-251 432h53l222 -382z" />
    <glyph glyph-name="Z" unicode="Z" horiz-adv-x="568" 
d="M543 45v-45h-531l459 709h-415v45h499l-459 -709h447z" />
    <glyph glyph-name="bracketleft" unicode="[" horiz-adv-x="300" 
d="M114 722v-876h122v-50h-170v976h170v-50h-122z" />
    <glyph glyph-name="backslash" unicode="\" horiz-adv-x="640" 
d="M570 0l-547 826h48l547 -826h-48z" />
    <glyph glyph-name="bracketright" unicode="]" horiz-adv-x="300" 
d="M188 722h-122v50h170v-976h-170v50h122v876z" />
    <glyph glyph-name="asciicircum" unicode="^" 
d="M103 300h-48l231 454h54l230 -454h-48l-209 410z" />
    <glyph glyph-name="underscore" unicode="_" horiz-adv-x="500" 
d="M500 -179h-500v58h500v-58z" />
    <glyph glyph-name="grave" unicode="`" horiz-adv-x="313" 
d="M237 567l-38 -17l-124 145l61 19z" />
    <glyph glyph-name="a" unicode="a" horiz-adv-x="560" 
d="M438 84c-44 -63 -106 -94 -180 -94c-132 0 -226 100 -226 241c0 145 90 241 226 241c73 0 142 -36 180 -92v82h46v-462h-46v84zM441 231c0 117 -75 199 -183 199c-104 0 -181 -83 -181 -196c0 -114 80 -203 182 -203c105 0 182 84 182 200z" />
    <glyph glyph-name="b" unicode="b" horiz-adv-x="560" 
d="M123 381c40 59 104 91 179 91c136 0 227 -96 227 -238s-96 -244 -230 -244c-77 0 -130 28 -176 93v-83h-46v825h46v-444zM119 235c0 -121 73 -203 183 -203c104 0 180 86 180 203c0 112 -77 195 -181 195c-108 0 -182 -79 -182 -195z" />
    <glyph glyph-name="c" unicode="c" horiz-adv-x="477" 
d="M436 114v-61c-44 -38 -109 -63 -166 -63c-137 0 -238 103 -238 241s103 241 237 241c37 0 105 -9 162 -56v-61c-44 50 -99 75 -165 75c-104 0 -189 -88 -189 -196c0 -115 80 -202 189 -202c63 0 135 35 170 82z" />
    <glyph glyph-name="d" unicode="d" horiz-adv-x="560" 
d="M438 84c-23 -34 -79 -94 -176 -94c-137 0 -230 96 -230 237c0 149 88 245 225 245c76 0 133 -29 181 -92v445h46v-825h-46v84zM441 236c0 114 -74 194 -181 194c-103 0 -183 -84 -183 -193c0 -122 74 -205 183 -205c107 0 181 83 181 204z" />
    <glyph glyph-name="e" unicode="e" horiz-adv-x="510" 
d="M462 115c-36 -77 -114 -125 -205 -125c-132 0 -225 101 -225 244c0 137 95 238 223 238c133 0 223 -99 223 -245h-402c0 -117 74 -195 185 -195c44 0 119 18 164 105zM77 269h357c-17 94 -89 161 -175 161c-93 0 -172 -69 -182 -161z" />
    <glyph glyph-name="f" unicode="f" horiz-adv-x="240" 
d="M123 0h-46v420h-51v42h51v213c0 113 38 163 123 163l39 -7v-41l-17 4c-70 6 -99 -23 -99 -117v-215h115v-42h-115v-420z" />
    <glyph glyph-name="g" unicode="g" horiz-adv-x="567" 
d="M445 82c-53 -65 -107 -92 -183 -92c-128 0 -223 103 -223 241c0 142 96 241 233 241c70 0 130 -34 173 -93v83h46v-462c0 -165 -87 -263 -234 -263c-130 0 -224 83 -224 198h45c0 -91 74 -156 178 -156c163 0 189 141 189 221v82zM448 231c0 119 -74 199 -185 199
c-122 0 -179 -110 -179 -195c0 -117 77 -203 183 -203s181 82 181 199z" />
    <glyph glyph-name="h" unicode="h" horiz-adv-x="490" 
d="M413 0h-46v289c0 102 -31 141 -112 141c-89 0 -132 -65 -132 -197v-233h-46v825h46v-436c33 57 77 83 139 83c101 0 151 -61 151 -184v-288z" />
    <glyph glyph-name="i" unicode="i" horiz-adv-x="234" 
d="M76 616c0 23 18 41 41 41s41 -18 41 -41s-18 -41 -41 -41s-41 18 -41 41zM140 0h-46v462h46v-462z" />
    <glyph glyph-name="j" unicode="j" horiz-adv-x="234" 
d="M76 616c0 23 18 41 41 41s41 -18 41 -41s-18 -41 -41 -41s-41 18 -41 41zM94 462h46v-732h-45z" />
    <glyph glyph-name="k" unicode="k" horiz-adv-x="427" 
d="M77 825h46v-558l189 195h58l-194 -200l262 -262h-62l-229 231l-24 -25v-206h-46v825z" />
    <glyph glyph-name="l" unicode="l" horiz-adv-x="199" 
d="M77 825h46v-825h-46v825z" />
    <glyph glyph-name="m" unicode="m" horiz-adv-x="725" 
d="M650 0h-46v295c0 90 -33 135 -99 135c-81 0 -118 -49 -118 -159v-271h-46v295c0 90 -33 135 -99 135c-82 0 -119 -57 -119 -181v-249h-46v462h46v-58c31 50 63 68 120 68h-6c64 0 115 -32 133 -84c25 54 75 84 140 84h-6c100 0 146 -57 146 -184v-288z" />
    <glyph glyph-name="n" unicode="n" horiz-adv-x="490" 
d="M413 0h-46v289c0 102 -31 141 -112 141c-89 0 -132 -65 -132 -197v-233h-46v462h46v-73c33 57 77 83 139 83c101 0 151 -61 151 -184v-288z" />
    <glyph glyph-name="o" unicode="o" horiz-adv-x="547" 
d="M515 231c0 -134 -107 -241 -241 -241c-136 0 -242 105 -242 241c0 134 108 241 242 241s241 -107 241 -241zM470 231c0 112 -86 199 -196 199s-197 -88 -197 -199c0 -112 86 -199 197 -199c109 0 196 89 196 199z" />
    <glyph glyph-name="p" unicode="p" horiz-adv-x="560" 
d="M123 82v-352h-46v732h46v-83c45 62 103 93 176 93c132 0 230 -103 230 -242c0 -144 -90 -240 -227 -240c-80 0 -137 29 -179 92zM119 226c0 -117 72 -194 182 -194c105 0 181 82 181 195c0 117 -76 203 -180 203c-109 0 -183 -83 -183 -204z" />
    <glyph glyph-name="q" unicode="q" horiz-adv-x="560" 
d="M438 83c-41 -62 -101 -93 -179 -93c-135 0 -227 97 -227 238c0 142 96 244 230 244c73 0 131 -31 176 -95v85h46v-732h-46v353zM441 225c0 119 -77 205 -182 205c-109 0 -182 -84 -182 -208c0 -110 77 -190 183 -190c104 0 181 82 181 193z" />
    <glyph glyph-name="r" unicode="r" horiz-adv-x="278" 
d="M124 0h-46v462h46v-57c22 44 56 67 100 67c21 0 34 -4 49 -12l-25 -39l-30 9c-66 0 -94 -46 -94 -159v-271z" />
    <glyph glyph-name="s" unicode="s" horiz-adv-x="375" 
d="M337 133c0 -82 -65 -144 -151 -144c-76 0 -138 48 -158 123l44 14c18 -61 59 -94 114 -94c62 0 105 43 105 105c0 46 -25 69 -106 96s-119 66 -119 123c0 65 56 116 127 116c50 0 96 -29 117 -74l-39 -20c-11 28 -47 52 -79 52c-42 0 -81 -35 -81 -72
c0 -40 24 -61 95 -85c95 -32 131 -69 131 -140z" />
    <glyph glyph-name="t" unicode="t" horiz-adv-x="209" 
d="M128 0h-46v420h-51v43h51v164h46v-164h80v-43h-80v-420z" />
    <glyph glyph-name="u" unicode="u" horiz-adv-x="472" 
d="M402 462v-312c0 -100 -63 -160 -167 -160s-165 61 -165 164v308h46v-284c0 -104 35 -146 121 -146c85 0 119 47 119 148v282h46z" />
    <glyph glyph-name="v" unicode="v" horiz-adv-x="433" 
d="M427 462l-210 -487l-211 487h45l167 -382l163 382h46z" />
    <glyph glyph-name="w" unicode="w" horiz-adv-x="752" 
d="M377 488l164 -404l159 378h46l-208 -486l-163 398l-162 -398l-209 486h48l162 -380z" />
    <glyph glyph-name="x" unicode="x" horiz-adv-x="443" 
d="M423 462l-172 -218l189 -244h-54l-165 213l-164 -213h-53l188 244l-171 218h54l146 -187l148 187h54z" />
    <glyph glyph-name="y" unicode="y" horiz-adv-x="460" 
d="M414 462h46l-310 -732h-46l111 262l-221 470h47l196 -418z" />
    <glyph glyph-name="z" unicode="z" horiz-adv-x="480" 
d="M64 462h412l-378 -419h375v-43h-472l378 419h-315v43z" />
    <glyph glyph-name="braceleft" unicode="{" horiz-adv-x="300" 
d="M41 263v42c58 36 73 66 73 147v183c0 93 46 137 145 137v-47c-64 0 -97 -25 -97 -81v-199c0 -79 -27 -137 -74 -161c50 -30 74 -81 74 -161v-199c0 -58 29 -81 97 -81v-47c-97 0 -145 45 -145 137v183c0 81 -13 110 -73 147z" />
    <glyph glyph-name="bar" unicode="|" horiz-adv-x="320" 
d="M137 -10v836h47v-836h-47z" />
    <glyph glyph-name="braceright" unicode="}" horiz-adv-x="300" 
d="M260 305v-42c-52 -32 -74 -53 -74 -147v-183c0 -94 -45 -137 -145 -137v47c65 0 97 27 97 81v199c0 79 24 131 75 161c-49 25 -75 82 -75 161v199c0 58 -31 81 -97 81v47c99 0 145 -44 145 -137v-183c0 -82 14 -109 74 -147z" />
    <glyph glyph-name="asciitilde" unicode="~" 
d="M202 262c-39 0 -68 -21 -101 -74l-47 24c47 69 94 102 148 102c33 0 71 -13 116 -38s78 -38 101 -38c37 0 63 19 101 74l47 -24c-47 -69 -94 -102 -148 -102c-33 0 -71 13 -116 38s-78 38 -101 38z" />
    <glyph glyph-name="quotesinglbase" unicode="&#x201a;" horiz-adv-x="259" 
d="M186 61l-83 -227l-30 11l67 229z" />
    <glyph glyph-name="florin" unicode="&#x192;" 
d="M483 838c27 0 48 -5 69 -15l-10 -41c-13 7 -19 7 -52 11c-48 0 -71 -26 -82 -91l-39 -216h118l-12 -45h-114l-78 -413c-21 -124 -57 -168 -138 -168c-22 0 -53 6 -75 16l9 43c18 -9 24 -9 66 -14c53 0 71 29 87 105l83 431h-69l9 45h68l46 242c15 74 53 110 114 110z" />
    <glyph glyph-name="quotedblbase" unicode="&#x201e;" horiz-adv-x="390" 
 />
    <glyph glyph-name="ellipsis" unicode="&#x2026;" horiz-adv-x="1000" 
 />
    <glyph glyph-name="dagger" unicode="&#x2020;" 
 />
    <glyph glyph-name="daggerdbl" unicode="&#x2021;" 
 />
    <glyph glyph-name="circumflex" unicode="&#x2c6;" horiz-adv-x="426" 
d="M75 588l137 105l139 -105l-35 -29l-103 77l-103 -77z" />
    <glyph glyph-name="perthousand" unicode="&#x2030;" horiz-adv-x="1034" 
d="M526 754h45l-436 -754h-45zM181 761c83 0 152 -67 152 -148c0 -82 -69 -148 -153 -148c-85 0 -152 65 -152 148c0 82 69 148 153 148zM180 719c-60 0 -110 -48 -110 -106c0 -61 47 -106 112 -106c61 0 109 47 109 108c0 57 -50 104 -111 104zM484 287
c88 0 152 -71 152 -147c0 -81 -69 -148 -152 -148c-85 0 -153 65 -153 148c0 80 69 147 153 147zM484 245c-61 0 -111 -48 -111 -105c0 -59 50 -106 112 -106c60 0 109 49 109 108c0 56 -51 103 -110 103zM853 287c88 0 152 -71 152 -147c0 -81 -69 -148 -152 -148
c-85 0 -153 65 -153 148c0 80 69 147 153 147zM853 245c-61 0 -111 -48 -111 -105c0 -59 50 -106 112 -106c60 0 109 49 109 108c0 56 -51 103 -110 103z" />
    <glyph glyph-name="Scaron" unicode="&#x160;" horiz-adv-x="544" 
d="M501 209c0 -122 -104 -219 -235 -219c-104 0 -189 62 -223 162l43 20c25 -82 97 -137 180 -137c103 0 187 79 187 176c0 69 -39 101 -181 170c-146 69 -185 109 -185 192c0 113 77 191 195 191c74 0 144 -41 182 -106l-34 -28c-44 76 -116 89 -151 89
c-80 0 -144 -63 -144 -143c0 -64 39 -100 162 -155c163 -77 204 -118 204 -212zM132 956l35 29l103 -77l103 77l35 -29l-137 -105z" />
    <glyph glyph-name="guilsinglleft" unicode="&#x2039;" horiz-adv-x="277" 
 />
    <glyph glyph-name="OE" unicode="&#x152;" horiz-adv-x="1193" 
d="M426 719c-191 0 -342 -151 -342 -342s151 -342 342 -342c200 0 340 141 340 342s-142 342 -340 342zM767 0v200c-28 -109 -184 -210 -337 -210c-220 0 -394 171 -394 387c0 217 176 387 394 387c153 0 285 -80 337 -204v194h361v-45h-314v-274h305v-45h-305v-345h314v-45
h-361z" />
    <glyph glyph-name="quoteleft" unicode="&#x2018;" horiz-adv-x="259" 
d="M74 538l82 225l29 -9c-15 -59 -22 -81 -69 -230z" />
    <glyph glyph-name="quoteright" unicode="&#x2019;" horiz-adv-x="259" 
d="M186 751l-83 -227l-30 11l67 229z" />
    <glyph glyph-name="quotedblleft" unicode="&#x201c;" horiz-adv-x="390" 
d="M207 538l82 225l29 -9c-15 -59 -22 -81 -69 -230zM74 538l82 225l29 -9c-15 -59 -22 -81 -69 -230z" />
    <glyph glyph-name="quotedblright" unicode="&#x201d;" horiz-adv-x="390" 
d="M319 751l-83 -227l-30 11l67 229zM186 751l-83 -227l-30 11l67 229z" />
    <glyph glyph-name="bullet" unicode="&#x2022;" 
d="M310 569c105 0 190 -85 190 -190c0 -107 -84 -190 -189 -190c-107 0 -190 83 -190 190s84 190 189 190z" />
    <glyph glyph-name="endash" unicode="&#x2013;" horiz-adv-x="500" 
d="M0 343h500v-45h-500v45z" />
    <glyph glyph-name="emdash" unicode="&#x2014;" horiz-adv-x="1000" 
d="M0 343h1000v-45h-1000v45z" />
    <glyph glyph-name="tilde" unicode="&#x2dc;" horiz-adv-x="439" 
d="M363 651c-21 -43 -48 -64 -80 -64c-21 0 -44 7 -69 20s-46 20 -65 20c-21 0 -34 -12 -44 -41l-31 22c22 43 48 64 80 64c21 0 43 -7 68 -20s47 -20 66 -20c17 0 32 8 44 41z" />
    <glyph glyph-name="trademark" unicode="&#x2122;" horiz-adv-x="940" 
d="M383 708h-143v-377h-43v377h-142v46h328v-46zM884 754v-423h-43v387l-169 -387l-166 387v-387h-43v423h72l138 -330l140 330h71z" />
    <glyph glyph-name="scaron" unicode="&#x161;" horiz-adv-x="375" 
d="M337 133c0 -82 -65 -144 -151 -144c-76 0 -138 48 -158 123l44 14c18 -61 59 -94 114 -94c62 0 105 43 105 105c0 46 -25 69 -106 96s-119 66 -119 123c0 65 56 116 127 116c50 0 96 -29 117 -74l-39 -20c-11 28 -47 52 -79 52c-42 0 -81 -35 -81 -72
c0 -40 24 -61 95 -85c95 -32 131 -69 131 -140zM50 665l35 29l103 -77l103 77l35 -29l-137 -105z" />
    <glyph glyph-name="guilsinglright" unicode="&#x203a;" horiz-adv-x="277" 
 />
    <glyph glyph-name="oe" unicode="&#x153;" horiz-adv-x="945" 
d="M469 231c0 112 -86 199 -195 199c-110 0 -196 -87 -196 -199s86 -199 196 -199c109 0 195 87 195 199zM493 124c-50 -86 -130 -134 -223 -134c-131 0 -237 108 -237 241s106 241 237 241c99 0 184 -51 220 -133c41 88 110 133 207 133c129 0 218 -100 218 -245h-401
c0 -117 74 -195 184 -195c72 0 129 37 164 105l37 -22c-35 -76 -112 -125 -199 -125c-100 0 -171 46 -207 134zM515 269h356c-15 93 -90 161 -174 161c-95 0 -170 -67 -182 -161z" />
    <glyph glyph-name="Ydieresis" unicode="&#x178;" horiz-adv-x="559" 
d="M501 754h53l-251 -432v-322h-48v322l-251 432h53l222 -382zM186 967c23 0 41 -18 41 -41s-18 -41 -41 -41s-41 18 -41 41s18 41 41 41zM372 967c23 0 41 -18 41 -41s-18 -41 -41 -41s-41 18 -41 41s18 41 41 41z" />
    <glyph glyph-name="nonbreakingspace" unicode="&#xa0;" horiz-adv-x="500" 
 />
    <glyph glyph-name="exclamdown" unicode="&#xa1;" horiz-adv-x="320" 
d="M161 388c-23 0 -41 18 -41 41s18 41 41 41s41 -18 41 -41s-18 -41 -41 -41zM136 -294v611h48v-611h-48z" />
    <glyph glyph-name="cent" unicode="&#xa2;" 
d="M361 14h-45v131c-126 16 -209 112 -209 240c0 126 87 225 209 240v116h45v-116c45 0 101 -21 145 -55v-61c-28 33 -89 74 -145 74v-397c58 7 117 38 150 81v-61c-39 -34 -109 -62 -150 -62v-130zM316 187v395c-93 -13 -164 -98 -164 -194c0 -107 66 -187 164 -201z" />
    <glyph glyph-name="sterling" unicode="&#xa3;" 
d="M63 30c30 36 90 64 135 64c56 47 67 86 61 148h-124v45h112c-112 188 -134 226 -134 284c0 115 82 193 203 193c114 0 189 -77 189 -199h-48c0 98 -54 154 -148 154c-85 0 -149 -63 -149 -146c0 -37 19 -84 56 -140c38 -55 66 -104 83 -146h136v-45h-127
c4 -67 -6 -117 -56 -159c121 -42 138 -48 159 -48c34 0 74 26 104 82l42 -25c-39 -65 -86 -102 -140 -102c-31 0 -69 10 -114 29c-45 20 -80 30 -103 30c-36 0 -72 -20 -107 -60z" />
    <glyph glyph-name="currency" unicode="&#xa4;" 
d="M310 504c-114 0 -205 -91 -205 -204s91 -204 204 -204c114 0 205 91 205 204s-91 204 -204 204zM562 300c0 -62 -19 -115 -56 -158l43 -42l-40 -39l-42 42c-45 -37 -97 -55 -158 -55s-114 18 -157 55l-43 -42l-39 39l42 42c-37 46 -55 99 -55 158c0 61 18 113 55 158
l-42 42l39 39l43 -42c45 37 97 55 157 55c62 0 115 -18 158 -55l42 42l40 -39l-43 -42c37 -47 56 -99 56 -158z" />
    <glyph glyph-name="yen" unicode="&#xa5;" 
d="M85 323h200l-43 75h-157v45h131l-181 311h56l219 -382l219 382h56l-181 -311h128v-45h-154l-43 -75h197v-45h-198v-278h-48v278h-201v45z" />
    <glyph glyph-name="brokenbar" unicode="&#xa6;" horiz-adv-x="320" 
d="M137 -10v328h47v-328h-47zM137 498v328h47v-328h-47z" />
    <glyph glyph-name="section" unicode="&#xa7;" 
d="M312 421c-74 0 -137 -61 -137 -132c0 -76 61 -139 134 -139c76 0 137 63 137 133c0 94 -76 138 -134 138zM381 115c70 -31 96 -74 96 -148c0 -98 -67 -160 -169 -160c-114 0 -166 57 -166 181h48c0 -91 41 -136 122 -136c69 0 117 50 117 120c0 76 -36 95 -154 134
c-105 34 -147 86 -147 180c0 83 38 136 112 170c-67 31 -96 75 -96 148c0 98 68 160 173 160c116 0 169 -57 169 -181h-48c0 91 -42 136 -125 136c-73 0 -121 -48 -121 -120c0 -62 29 -94 121 -123c136 -44 180 -86 180 -191c0 -81 -36 -135 -112 -170z" />
    <glyph glyph-name="dieresis" unicode="&#xa8;" horiz-adv-x="421" 
d="M118 676c23 0 41 -18 41 -41s-18 -41 -41 -41s-41 18 -41 41s18 41 41 41zM304 676c23 0 41 -18 41 -41s-18 -41 -41 -41s-41 18 -41 41s18 41 41 41z" />
    <glyph glyph-name="copyright" unicode="&#xa9;" horiz-adv-x="800" 
d="M402 766c216 0 386 -170 386 -386s-170 -386 -386 -386s-386 170 -386 386s170 386 386 386zM402 719c-189 0 -340 -150 -340 -339c0 -190 149 -340 339 -340c189 0 340 150 340 339s-151 340 -339 340zM594 457h-48c-9 62 -62 103 -133 103c-98 0 -159 -72 -159 -174
c0 -109 62 -179 158 -179c41 0 117 14 136 103h46c0 -79 -83 -148 -182 -148c-126 0 -211 90 -211 222c0 135 82 222 211 222c98 0 182 -70 182 -149z" />
    <glyph glyph-name="ordfeminine" unicode="&#xaa;" horiz-adv-x="560" 
d="M285 531c-31 -38 -67 -56 -117 -56c-87 0 -147 59 -147 145c0 87 59 144 147 144c45 0 93 -22 117 -55v49h30v-277h-30v50zM287 620c0 70 -49 119 -119 119c-67 0 -118 -51 -118 -118c0 -69 51 -121 118 -121c69 0 119 51 119 120z" />
    <glyph glyph-name="guillemotleft" unicode="&#xab;" horiz-adv-x="397" 
d="M208 320l123 -142l-30 -27l-147 169l147 169l30 -27zM88 320l123 -142l-30 -27l-147 169l147 169l30 -27z" />
    <glyph glyph-name="logicalnot" unicode="&#xac;" 
d="M518 100v218h-464v47h511v-265h-47z" />
    <glyph glyph-name="registered" unicode="&#xae;" horiz-adv-x="800" 
d="M300 405h138c70 0 101 22 101 71c0 44 -32 64 -103 64h-136v-135zM400 758c213 0 382 -169 382 -382s-169 -382 -382 -382s-382 169 -382 382s169 382 382 382zM400 712c-187 0 -336 -149 -336 -336c0 -188 148 -336 336 -336c187 0 336 149 336 336
c0 186 -150 336 -336 336zM300 159h-47v430h189c97 0 146 -38 146 -114c0 -77 -47 -117 -134 -117l128 -199h-62l-121 199h-99v-199z" />
    <glyph glyph-name="macron" unicode="&#xaf;" horiz-adv-x="456" 
d="M75 674h305v-45h-305v45z" />
    <glyph glyph-name="degree" unicode="&#xb0;" horiz-adv-x="400" 
d="M200 763c83 0 150 -67 150 -150s-67 -150 -150 -150s-150 67 -150 150s67 150 150 150zM200 723c-62 0 -110 -48 -110 -110s48 -110 110 -110s110 48 110 110s-48 110 -110 110z" />
    <glyph glyph-name="plusminus" unicode="&#xb1;" 
d="M286 321v193h48v-193h231v-48h-231v-193h-48v193h-232v48h232zM54 0v48h511v-48h-511z" />
    <glyph glyph-name="twosuperior" unicode="&#xb2;" horiz-adv-x="372" 
d="M35 306l202 203c47 51 72 94 72 125c0 57 -53 103 -118 103s-114 -45 -114 -106h-31c0 77 63 133 150 133c80 0 145 -59 145 -133c0 -58 -60 -123 -98 -157l-138 -141h233v-27h-303z" />
    <glyph glyph-name="threesuperior" unicode="&#xb3;" horiz-adv-x="372" 
d="M95 652h-32c0 67 49 112 124 112s131 -49 131 -117c0 -44 -28 -83 -74 -104c50 -17 80 -59 80 -112c0 -73 -60 -131 -142 -131c-79 0 -137 49 -137 117h32c0 -49 47 -90 103 -90c64 0 113 46 113 104s-45 97 -111 97v27c59 0 104 41 104 94c0 50 -43 88 -98 88
c-56 0 -93 -34 -93 -85z" />
    <glyph glyph-name="acute" unicode="&#xb4;" horiz-adv-x="313" 
d="M75 567l101 147l61 -19l-124 -145z" />
    <glyph glyph-name="paragraph" unicode="&#xb6;" 
d="M471 709v-887h-48v887h-93v-887h-48v548c-98 0 -172 83 -172 192c0 125 69 192 199 192h201v-45h-39z" />
    <glyph glyph-name="periodcentered" unicode="&#xb7;" horiz-adv-x="310" 
d="M155 297c23 0 41 -18 41 -41s-18 -41 -41 -41s-41 18 -41 41s18 41 41 41z" />
    <glyph glyph-name="cedilla" unicode="&#xb8;" horiz-adv-x="299" 
d="M113 -183l-38 19l93 144l56 -22z" />
    <glyph glyph-name="onesuperior" unicode="&#xb9;" horiz-adv-x="372" 
d="M230 306h-30v425h-79l15 27h94v-452z" />
    <glyph glyph-name="ordmasculine" unicode="&#xba;" horiz-adv-x="547" 
d="M321 620c0 -80 -70 -145 -157 -145c-89 0 -157 62 -157 145c0 82 68 144 157 144c88 0 157 -64 157 -144zM292 620c0 80 -72 119 -128 119s-128 -39 -128 -119c0 -67 56 -120 128 -120s128 53 128 120z" />
    <glyph glyph-name="guillemotright" unicode="&#xbb;" horiz-adv-x="397" 
d="M307 320l-119 142l28 27l145 -169l-145 -169l-28 27zM187 320l-119 142l28 27l145 -169l-145 -169l-28 27z" />
    <glyph glyph-name="onequarter" unicode="&#xbc;" horiz-adv-x="930" 
 />
    <glyph glyph-name="onehalf" unicode="&#xbd;" horiz-adv-x="930" 
d="M209 306h-30v425h-79l15 27h94v-452zM157 0l449 773l32 -19l-449 -773zM521 0l202 203c47 51 72 94 72 125c0 57 -53 103 -118 103s-114 -45 -114 -106h-31c0 77 63 133 150 133c80 0 145 -59 145 -133c0 -58 -60 -123 -98 -157l-138 -141h233v-27h-303z" />
    <glyph glyph-name="threequarters" unicode="&#xbe;" horiz-adv-x="930" 
 />
    <glyph glyph-name="questiondown" unicode="&#xbf;" horiz-adv-x="491" 
d="M246 -303c-107 0 -180 74 -180 181c0 89 49 146 146 169s146 63 146 119c0 70 -40 106 -119 106c-60 0 -94 -38 -101 -113h-49c0 98 63 160 161 160c90 0 154 -66 154 -148c0 -79 -48 -131 -145 -154c-96 -23 -144 -67 -144 -131c0 -85 55 -144 134 -144
c80 0 129 50 129 130l-5 50h46l7 -63c0 -95 -74 -162 -180 -162zM249 389c-24 0 -42 18 -42 41s18 41 41 41s41 -18 41 -41c0 -24 -17 -41 -40 -41z" />
    <glyph glyph-name="Agrave" unicode="&#xc0;" horiz-adv-x="641" 
d="M468 292l-147 365l-148 -365h295zM635 0h-48l-100 247h-333l-100 -247h-50l317 780zM405 858l-38 -17l-124 145l61 19z" />
    <glyph glyph-name="Aacute" unicode="&#xc1;" horiz-adv-x="641" 
d="M468 292l-147 365l-148 -365h295zM635 0h-48l-100 247h-333l-100 -247h-50l317 780zM243 858l101 147l61 -19l-124 -145z" />
    <glyph glyph-name="Acircumflex" unicode="&#xc2;" horiz-adv-x="641" 
d="M468 292l-147 365l-148 -365h295zM635 0h-48l-100 247h-333l-100 -247h-50l317 780zM185 879l137 105l139 -105l-35 -29l-103 77l-103 -77z" />
    <glyph glyph-name="Atilde" unicode="&#xc3;" horiz-adv-x="641" 
d="M468 292l-147 365l-148 -365h295zM635 0h-48l-100 247h-333l-100 -247h-50l317 780zM473 942c-21 -43 -48 -64 -80 -64c-21 0 -44 7 -69 20s-46 20 -65 20c-21 0 -34 -12 -44 -41l-31 22c22 43 48 64 80 64c21 0 43 -7 68 -20s47 -20 66 -20c17 0 32 8 44 41z" />
    <glyph glyph-name="Adieresis" unicode="&#xc4;" horiz-adv-x="641" 
d="M468 292l-147 365l-148 -365h295zM635 0h-48l-100 247h-333l-100 -247h-50l317 780zM228 967c23 0 41 -18 41 -41s-18 -41 -41 -41s-41 18 -41 41s18 41 41 41zM414 967c23 0 41 -18 41 -41s-18 -41 -41 -41s-41 18 -41 41s18 41 41 41z" />
    <glyph glyph-name="Aring" unicode="&#xc5;" horiz-adv-x="641" 
d="M468 292l-147 365l-148 -365h295zM635 0h-48l-100 247h-333l-100 -247h-50l317 780zM320 1001c48 0 87 -39 87 -87c0 -49 -38 -87 -87 -87c-50 0 -87 37 -87 87c0 49 38 87 87 87zM320 961c-28 0 -47 -19 -47 -47s19 -47 47 -47s47 19 47 47s-19 47 -47 47z" />
    <glyph glyph-name="AE" unicode="&#xc6;" horiz-adv-x="942" 
d="M409 709l-196 -416h268v416h-72zM481 248h-291l-128 -248h-57l385 754h433v-45h-294v-274h285v-45h-285v-345h294v-45h-342v248z" />
    <glyph glyph-name="Ccedilla" unicode="&#xc7;" horiz-adv-x="739" 
d="M84 377c0 -183 159 -342 342 -342c97 0 181 38 253 114v-65c-73 -61 -156 -94 -236 -94c-227 0 -407 171 -407 387c0 211 178 387 393 387c96 0 183 -33 251 -97v-67c-67 78 -155 119 -256 119c-184 0 -340 -157 -340 -342zM333 -183l-38 19l93 144l56 -22z" />
    <glyph glyph-name="Egrave" unicode="&#xc8;" horiz-adv-x="507" 
d="M442 0h-361v754h361v-45h-313v-274h304v-45h-304v-345h313v-45zM336 858l-38 -17l-124 145l61 19z" />
    <glyph glyph-name="Eacute" unicode="&#xc9;" horiz-adv-x="507" 
d="M442 0h-361v754h361v-45h-313v-274h304v-45h-304v-345h313v-45zM174 858l101 147l61 -19l-124 -145z" />
    <glyph glyph-name="Ecircumflex" unicode="&#xca;" horiz-adv-x="507" 
d="M442 0h-361v754h361v-45h-313v-274h304v-45h-304v-345h313v-45zM116 879l137 105l139 -105l-35 -29l-103 77l-103 -77z" />
    <glyph glyph-name="Edieresis" unicode="&#xcb;" horiz-adv-x="507" 
d="M442 0h-361v754h361v-45h-313v-274h304v-45h-304v-345h313v-45zM159 967c23 0 41 -18 41 -41s-18 -41 -41 -41s-41 18 -41 41s18 41 41 41zM345 967c23 0 41 -18 41 -41s-18 -41 -41 -41s-41 18 -41 41s18 41 41 41z" />
    <glyph glyph-name="Igrave" unicode="&#xcc;" horiz-adv-x="210" 
d="M129 0h-48v754h48v-754zM185 858l-38 -17l-124 145l61 19z" />
    <glyph glyph-name="Iacute" unicode="&#xcd;" horiz-adv-x="210" 
d="M129 0h-48v754h48v-754zM23 858l101 147l61 -19l-124 -145z" />
    <glyph glyph-name="Icircumflex" unicode="&#xce;" horiz-adv-x="210" 
d="M129 0h-48v754h48v-754zM-35 879l137 105l139 -105l-35 -29l-103 77l-103 -77z" />
    <glyph glyph-name="Idieresis" unicode="&#xcf;" horiz-adv-x="210" 
d="M129 0h-48v754h48v-754zM8 967c23 0 41 -18 41 -41s-18 -41 -41 -41s-41 18 -41 41s18 41 41 41zM194 967c23 0 41 -18 41 -41s-18 -41 -41 -41s-41 18 -41 41s18 41 41 41z" />
    <glyph glyph-name="Eth" unicode="&#xd0;" horiz-adv-x="652" 
d="M129 433h173v-42h-173v-346h93c202 0 347 140 347 332c0 194 -143 332 -343 332h-97v-276zM0 433h81v320l151 1c227 0 385 -155 385 -377c0 -227 -159 -377 -400 -377h-136v391h-81v42z" />
    <glyph glyph-name="Ntilde" unicode="&#xd1;" horiz-adv-x="843" 
d="M713 96v658h48v-777l-632 681v-658h-48v779c105 -117 184 -202 316 -342c107 -112 225 -240 316 -341zM571 942c-22 -43 -48 -64 -80 -64c-21 0 -44 7 -69 20s-46 20 -65 20c-21 0 -34 -12 -44 -41l-31 22c22 43 48 64 80 64c21 0 43 -7 68 -20s47 -20 66 -20
c17 0 32 8 44 41z" />
    <glyph glyph-name="Ograve" unicode="&#xd2;" horiz-adv-x="854" 
d="M771 377c0 191 -151 342 -343 342c-149 0 -344 -109 -344 -342c0 -192 151 -342 344 -342c192 0 343 151 343 342zM819 377c0 -215 -173 -387 -391 -387c-220 0 -392 170 -392 387c0 215 175 387 392 387s391 -172 391 -387zM511 858l-38 -17l-124 145l61 19z" />
    <glyph glyph-name="Oacute" unicode="&#xd3;" horiz-adv-x="854" 
d="M771 377c0 191 -151 342 -343 342c-149 0 -344 -109 -344 -342c0 -192 151 -342 344 -342c192 0 343 151 343 342zM819 377c0 -215 -173 -387 -391 -387c-220 0 -392 170 -392 387c0 215 175 387 392 387s391 -172 391 -387zM349 858l101 147l61 -19l-124 -145z" />
    <glyph glyph-name="Ocircumflex" unicode="&#xd4;" horiz-adv-x="854" 
d="M771 377c0 191 -151 342 -343 342c-149 0 -344 -109 -344 -342c0 -192 151 -342 344 -342c192 0 343 151 343 342zM819 377c0 -215 -173 -387 -391 -387c-220 0 -392 170 -392 387c0 215 175 387 392 387s391 -172 391 -387zM291 879l137 105l139 -105l-35 -29l-103 77
l-103 -77z" />
    <glyph glyph-name="Otilde" unicode="&#xd5;" horiz-adv-x="854" 
d="M771 377c0 191 -151 342 -343 342c-149 0 -344 -109 -344 -342c0 -192 151 -342 344 -342c192 0 343 151 343 342zM819 377c0 -215 -173 -387 -391 -387c-220 0 -392 170 -392 387c0 215 175 387 392 387s391 -172 391 -387zM579 942c-22 -43 -48 -64 -80 -64
c-21 0 -44 7 -69 20s-46 20 -65 20c-21 0 -34 -12 -44 -41l-31 22c22 43 48 64 80 64c21 0 43 -7 68 -20s47 -20 66 -20c17 0 32 8 44 41z" />
    <glyph glyph-name="Odieresis" unicode="&#xd6;" horiz-adv-x="854" 
d="M771 377c0 191 -151 342 -343 342c-149 0 -344 -109 -344 -342c0 -192 151 -342 344 -342c192 0 343 151 343 342zM819 377c0 -215 -173 -387 -391 -387c-220 0 -392 170 -392 387c0 215 175 387 392 387s391 -172 391 -387zM334 967c23 0 41 -18 41 -41s-18 -41 -41 -41
s-41 18 -41 41s18 41 41 41zM520 967c23 0 41 -18 41 -41s-18 -41 -41 -41s-41 18 -41 41s18 41 41 41z" />
    <glyph glyph-name="multiply" unicode="&#xd7;" 
d="M279 255l-225 225l31 31l225 -225l225 225l31 -31l-225 -225l225 -225l-31 -31l-225 225l-225 -225l-31 31z" />
    <glyph glyph-name="Oslash" unicode="&#xd8;" horiz-adv-x="854" 
d="M679 608l-484 -484c65 -59 142 -89 232 -89c190 0 341 151 341 342c0 89 -30 166 -89 231zM166 154l483 483c-61 55 -135 82 -222 82c-192 0 -342 -150 -342 -342c0 -87 27 -162 81 -223zM771 759l30 -29l-90 -90c70 -73 105 -161 105 -263c0 -215 -173 -387 -389 -387
c-103 0 -191 34 -264 102l-95 -95l-30 29l96 96c-65 71 -97 156 -97 255c0 215 173 387 390 387c99 0 183 -32 254 -95z" />
    <glyph glyph-name="Ugrave" unicode="&#xd9;" horiz-adv-x="660" 
d="M537 254v500h48v-511c0 -160 -102 -253 -255 -253c-159 0 -256 97 -256 253v511h48v-500c0 -140 75 -219 210 -219c132 0 205 78 205 219zM413 858l-38 -17l-124 145l61 19z" />
    <glyph glyph-name="Uacute" unicode="&#xda;" horiz-adv-x="660" 
d="M537 254v500h48v-511c0 -160 -102 -253 -255 -253c-159 0 -256 97 -256 253v511h48v-500c0 -140 75 -219 210 -219c132 0 205 78 205 219zM251 858l101 147l61 -19l-124 -145z" />
    <glyph glyph-name="Ucircumflex" unicode="&#xdb;" horiz-adv-x="660" 
d="M537 254v500h48v-511c0 -160 -102 -253 -255 -253c-159 0 -256 97 -256 253v511h48v-500c0 -140 75 -219 210 -219c132 0 205 78 205 219zM193 879l137 105l139 -105l-35 -29l-103 77l-103 -77z" />
    <glyph glyph-name="Udieresis" unicode="&#xdc;" horiz-adv-x="660" 
d="M537 254v500h48v-511c0 -160 -102 -253 -255 -253c-159 0 -256 97 -256 253v511h48v-500c0 -140 75 -219 210 -219c132 0 205 78 205 219zM236 967c23 0 41 -18 41 -41s-18 -41 -41 -41s-41 18 -41 41s18 41 41 41zM422 967c23 0 41 -18 41 -41s-18 -41 -41 -41
s-41 18 -41 41s18 41 41 41z" />
    <glyph glyph-name="Yacute" unicode="&#xdd;" horiz-adv-x="559" 
d="M501 754h53l-251 -432v-322h-48v322l-251 432h53l222 -382zM201 858l101 147l61 -19l-124 -145z" />
    <glyph glyph-name="Thorn" unicode="&#xde;" horiz-adv-x="472" 
 />
    <glyph glyph-name="germandbls" unicode="&#xdf;" horiz-adv-x="534" 
d="M124 651v-651h-47v420h-49v42h49v199c0 119 64 177 165 177c97 0 161 -63 161 -160c0 -63 -33 -113 -91 -139c111 -30 190 -141 190 -264c0 -134 -122 -281 -271 -281v42c110 0 227 124 227 240c0 128 -110 238 -227 238v42c75 0 127 50 127 124c0 73 -45 116 -120 116
c-76 0 -114 -48 -114 -145z" />
    <glyph glyph-name="agrave" unicode="&#xe0;" horiz-adv-x="560" 
d="M438 84c-44 -63 -106 -94 -180 -94c-132 0 -226 100 -226 241c0 145 90 241 226 241c73 0 142 -36 180 -92v82h46v-462h-46v84zM441 231c0 117 -75 199 -183 199c-104 0 -181 -83 -181 -196c0 -114 80 -203 182 -203c105 0 182 84 182 200zM361 567l-38 -17l-124 145
l61 19z" />
    <glyph glyph-name="aacute" unicode="&#xe1;" horiz-adv-x="560" 
d="M438 84c-44 -63 -106 -94 -180 -94c-132 0 -226 100 -226 241c0 145 90 241 226 241c73 0 142 -36 180 -92v82h46v-462h-46v84zM441 231c0 117 -75 199 -183 199c-104 0 -181 -83 -181 -196c0 -114 80 -203 182 -203c105 0 182 84 182 200zM199 567l101 147l61 -19
l-124 -145z" />
    <glyph glyph-name="acircumflex" unicode="&#xe2;" horiz-adv-x="560" 
d="M438 84c-44 -63 -106 -94 -180 -94c-132 0 -226 100 -226 241c0 145 90 241 226 241c73 0 142 -36 180 -92v82h46v-462h-46v84zM441 231c0 117 -75 199 -183 199c-104 0 -181 -83 -181 -196c0 -114 80 -203 182 -203c105 0 182 84 182 200zM141 588l137 105l139 -105
l-35 -29l-103 77l-103 -77z" />
    <glyph glyph-name="atilde" unicode="&#xe3;" horiz-adv-x="560" 
d="M438 84c-44 -63 -106 -94 -180 -94c-132 0 -226 100 -226 241c0 145 90 241 226 241c73 0 142 -36 180 -92v82h46v-462h-46v84zM441 231c0 117 -75 199 -183 199c-104 0 -181 -83 -181 -196c0 -114 80 -203 182 -203c105 0 182 84 182 200zM429 651
c-21 -43 -48 -64 -80 -64c-21 0 -44 7 -69 20s-46 20 -65 20c-21 0 -34 -12 -44 -41l-31 22c22 43 48 64 80 64c21 0 43 -7 68 -20s47 -20 66 -20c17 0 32 8 44 41z" />
    <glyph glyph-name="adieresis" unicode="&#xe4;" horiz-adv-x="560" 
d="M438 84c-44 -63 -106 -94 -180 -94c-132 0 -226 100 -226 241c0 145 90 241 226 241c73 0 142 -36 180 -92v82h46v-462h-46v84zM441 231c0 117 -75 199 -183 199c-104 0 -181 -83 -181 -196c0 -114 80 -203 182 -203c105 0 182 84 182 200zM184 676c23 0 41 -18 41 -41
s-18 -41 -41 -41s-41 18 -41 41s18 41 41 41zM370 676c23 0 41 -18 41 -41s-18 -41 -41 -41s-41 18 -41 41s18 41 41 41z" />
    <glyph glyph-name="aring" unicode="&#xe5;" horiz-adv-x="560" 
d="M438 84c-44 -63 -106 -94 -180 -94c-132 0 -226 100 -226 241c0 145 90 241 226 241c73 0 142 -36 180 -92v82h46v-462h-46v84zM441 231c0 117 -75 199 -183 199c-104 0 -181 -83 -181 -196c0 -114 80 -203 182 -203c105 0 182 84 182 200zM276 714c48 0 87 -39 87 -87
c0 -49 -38 -87 -87 -87c-50 0 -87 37 -87 87c0 49 38 87 87 87zM276 674c-28 0 -47 -19 -47 -47s19 -47 47 -47s47 19 47 47s-19 47 -47 47z" />
    <glyph glyph-name="ae" unicode="&#xe6;" horiz-adv-x="849" 
d="M374 134c0 63 -63 103 -161 103c-92 0 -148 -39 -148 -104c0 -54 55 -102 158 -102c86 0 151 44 151 103zM404 363c40 70 106 109 185 109c133 0 225 -100 225 -245h-399c0 -117 74 -195 183 -195c70 0 129 38 163 105l37 -22c-32 -75 -109 -125 -195 -125
c-92 0 -147 32 -197 112c-24 -70 -94 -113 -184 -113c-125 0 -202 60 -202 144c0 89 77 146 195 146c62 0 114 -17 156 -51v82c0 81 -51 120 -156 120c-51 0 -107 -13 -149 -35v46c35 17 103 31 154 31c101 0 163 -37 184 -109zM416 269h351c-11 92 -84 161 -171 161
c-94 0 -168 -67 -180 -161z" />
    <glyph glyph-name="ccedilla" unicode="&#xe7;" horiz-adv-x="477" 
d="M436 114v-61c-44 -38 -109 -63 -166 -63c-137 0 -238 103 -238 241s103 241 237 241c37 0 105 -9 162 -56v-61c-44 50 -99 75 -165 75c-104 0 -189 -88 -189 -196c0 -115 80 -202 189 -202c63 0 135 35 170 82zM209 -183l-38 19l93 144l56 -22z" />
    <glyph glyph-name="egrave" unicode="&#xe8;" horiz-adv-x="510" 
d="M462 115c-36 -77 -114 -125 -205 -125c-132 0 -225 101 -225 244c0 137 95 238 223 238c133 0 223 -99 223 -245h-402c0 -117 74 -195 185 -195c44 0 119 18 164 105zM77 269h357c-17 94 -89 161 -175 161c-93 0 -172 -69 -182 -161zM343 567l-38 -17l-124 145l61 19z
" />
    <glyph glyph-name="eacute" unicode="&#xe9;" horiz-adv-x="510" 
d="M462 115c-36 -77 -114 -125 -205 -125c-132 0 -225 101 -225 244c0 137 95 238 223 238c133 0 223 -99 223 -245h-402c0 -117 74 -195 185 -195c44 0 119 18 164 105zM77 269h357c-17 94 -89 161 -175 161c-93 0 -172 -69 -182 -161zM181 567l101 147l61 -19l-124 -145z
" />
    <glyph glyph-name="ecircumflex" unicode="&#xea;" horiz-adv-x="510" 
d="M462 115c-36 -77 -114 -125 -205 -125c-132 0 -225 101 -225 244c0 137 95 238 223 238c133 0 223 -99 223 -245h-402c0 -117 74 -195 185 -195c44 0 119 18 164 105zM77 269h357c-17 94 -89 161 -175 161c-93 0 -172 -69 -182 -161zM123 588l137 105l139 -105l-35 -29
l-103 77l-103 -77z" />
    <glyph glyph-name="edieresis" unicode="&#xeb;" horiz-adv-x="510" 
d="M462 115c-36 -77 -114 -125 -205 -125c-132 0 -225 101 -225 244c0 137 95 238 223 238c133 0 223 -99 223 -245h-402c0 -117 74 -195 185 -195c44 0 119 18 164 105zM77 269h357c-17 94 -89 161 -175 161c-93 0 -172 -69 -182 -161zM166 676c23 0 41 -18 41 -41
s-18 -41 -41 -41s-41 18 -41 41s18 41 41 41zM352 676c23 0 41 -18 41 -41s-18 -41 -41 -41s-41 18 -41 41s18 41 41 41z" />
    <glyph glyph-name="igrave" unicode="&#xec;" horiz-adv-x="234" 
d="M139 0h-46v462h46v-462zM200 567l-38 -17l-124 145l61 19z" />
    <glyph glyph-name="iacute" unicode="&#xed;" horiz-adv-x="234" 
d="M139 0h-46v462h46v-462zM38 567l101 147l61 -19l-124 -145z" />
    <glyph glyph-name="icircumflex" unicode="&#xee;" horiz-adv-x="234" 
d="M139 0h-46v462h46v-462zM-20 588l137 105l139 -105l-35 -29l-103 77l-103 -77z" />
    <glyph glyph-name="idieresis" unicode="&#xef;" horiz-adv-x="234" 
d="M139 0h-46v462h46v-462zM23 676c23 0 41 -18 41 -41s-18 -41 -41 -41s-41 18 -41 41s18 41 41 41zM209 676c23 0 41 -18 41 -41s-18 -41 -41 -41s-41 18 -41 41s18 41 41 41z" />
    <glyph glyph-name="eth" unicode="&#xf0;" horiz-adv-x="547" 
d="M509 228c0 -134 -104 -239 -236 -239s-236 105 -236 239s106 244 236 244c62 0 115 -18 158 -53c-19 75 -74 148 -174 251l-158 -117l-26 35l151 110c-45 38 -94 71 -148 98l32 29c52 -25 103 -58 152 -100l138 100l25 -32l-131 -97c156 -147 217 -278 217 -468zM273 430
c-107 0 -191 -88 -191 -201s82 -198 191 -198c107 0 191 87 191 198c0 129 -69 201 -191 201z" />
    <glyph glyph-name="ntilde" unicode="&#xf1;" horiz-adv-x="490" 
d="M413 0h-46v289c0 102 -31 141 -112 141c-89 0 -132 -65 -132 -197v-233h-46v462h46v-73c33 57 77 83 139 83c101 0 151 -61 151 -184v-288zM398 651c-21 -43 -48 -64 -80 -64c-21 0 -44 7 -69 20s-46 20 -65 20c-21 0 -34 -12 -44 -41l-31 22c22 43 48 64 80 64
c21 0 43 -7 68 -20s47 -20 66 -20c17 0 32 8 44 41z" />
    <glyph glyph-name="ograve" unicode="&#xf2;" horiz-adv-x="547" 
d="M515 231c0 -134 -107 -241 -241 -241c-136 0 -242 105 -242 241c0 134 108 241 242 241s241 -107 241 -241zM470 231c0 112 -86 199 -196 199s-197 -88 -197 -199c0 -112 86 -199 197 -199c109 0 196 89 196 199zM353 567l-38 -17l-124 145l61 19z" />
    <glyph glyph-name="oacute" unicode="&#xf3;" horiz-adv-x="547" 
d="M515 231c0 -134 -107 -241 -241 -241c-136 0 -242 105 -242 241c0 134 108 241 242 241s241 -107 241 -241zM470 231c0 112 -86 199 -196 199s-197 -88 -197 -199c0 -112 86 -199 197 -199c109 0 196 89 196 199zM191 567l101 147l61 -19l-124 -145z" />
    <glyph glyph-name="ocircumflex" unicode="&#xf4;" horiz-adv-x="547" 
d="M515 231c0 -134 -107 -241 -241 -241c-136 0 -242 105 -242 241c0 134 108 241 242 241s241 -107 241 -241zM470 231c0 112 -86 199 -196 199s-197 -88 -197 -199c0 -112 86 -199 197 -199c109 0 196 89 196 199zM133 588l137 105l139 -105l-35 -29l-103 77l-103 -77z
" />
    <glyph glyph-name="otilde" unicode="&#xf5;" horiz-adv-x="547" 
d="M515 231c0 -134 -107 -241 -241 -241c-136 0 -242 105 -242 241c0 134 108 241 242 241s241 -107 241 -241zM470 231c0 112 -86 199 -196 199s-197 -88 -197 -199c0 -112 86 -199 197 -199c109 0 196 89 196 199zM421 651c-21 -43 -48 -64 -80 -64c-21 0 -44 7 -69 20
s-46 20 -65 20c-21 0 -34 -12 -44 -41l-31 22c22 43 48 64 80 64c21 0 43 -7 68 -20s47 -20 66 -20c17 0 32 8 44 41z" />
    <glyph glyph-name="odieresis" unicode="&#xf6;" horiz-adv-x="547" 
d="M515 231c0 -134 -107 -241 -241 -241c-136 0 -242 105 -242 241c0 134 108 241 242 241s241 -107 241 -241zM470 231c0 112 -86 199 -196 199s-197 -88 -197 -199c0 -112 86 -199 197 -199c109 0 196 89 196 199zM176 676c23 0 41 -18 41 -41s-18 -41 -41 -41
s-41 18 -41 41s18 41 41 41zM362 676c23 0 41 -18 41 -41s-18 -41 -41 -41s-41 18 -41 41s18 41 41 41z" />
    <glyph glyph-name="divide" unicode="&#xf7;" 
d="M311 513c23 0 41 -18 41 -41s-18 -41 -41 -41s-41 18 -41 41s18 41 41 41zM54 231v48h511v-48h-511zM311 83c23 0 41 -18 41 -41s-18 -41 -41 -41s-41 18 -41 41s18 41 41 41z" />
    <glyph glyph-name="oslash" unicode="&#xf8;" horiz-adv-x="547" 
d="M488 479l26 -28l-60 -60c41 -45 61 -98 61 -160c0 -134 -107 -241 -241 -241c-64 0 -118 20 -161 61l-59 -59l-26 27l59 59c-37 43 -55 94 -55 153c0 134 108 241 242 241c61 0 111 -18 152 -55zM423 360l-280 -279c37 -33 80 -49 131 -49c109 0 196 89 196 199
c0 51 -16 94 -47 129zM118 109l278 278c-33 29 -73 43 -122 43c-110 0 -197 -88 -197 -199c0 -48 14 -89 41 -122z" />
    <glyph glyph-name="ugrave" unicode="&#xf9;" horiz-adv-x="472" 
d="M402 462v-312c0 -100 -63 -160 -167 -160s-165 61 -165 164v308h46v-284c0 -104 35 -146 121 -146c85 0 119 47 119 148v282h46zM317 567l-38 -17l-124 145l61 19z" />
    <glyph glyph-name="uacute" unicode="&#xfa;" horiz-adv-x="472" 
d="M402 462v-312c0 -100 -63 -160 -167 -160s-165 61 -165 164v308h46v-284c0 -104 35 -146 121 -146c85 0 119 47 119 148v282h46zM155 567l101 147l61 -19l-124 -145z" />
    <glyph glyph-name="ucircumflex" unicode="&#xfb;" horiz-adv-x="472" 
d="M402 462v-312c0 -100 -63 -160 -167 -160s-165 61 -165 164v308h46v-284c0 -104 35 -146 121 -146c85 0 119 47 119 148v282h46zM97 588l137 105l139 -105l-35 -29l-103 77l-103 -77z" />
    <glyph glyph-name="udieresis" unicode="&#xfc;" horiz-adv-x="472" 
d="M402 462v-312c0 -100 -63 -160 -167 -160s-165 61 -165 164v308h46v-284c0 -104 35 -146 121 -146c85 0 119 47 119 148v282h46zM140 676c23 0 41 -18 41 -41s-18 -41 -41 -41s-41 18 -41 41s18 41 41 41zM326 676c23 0 41 -18 41 -41s-18 -41 -41 -41s-41 18 -41 41
s18 41 41 41z" />
    <glyph glyph-name="yacute" unicode="&#xfd;" horiz-adv-x="460" 
d="M414 462h46l-310 -732h-46l111 262l-221 470h47l196 -418zM150 567l101 147l61 -19l-124 -145z" />
    <glyph glyph-name="thorn" unicode="&#xfe;" horiz-adv-x="560" 
 />
    <glyph glyph-name="ydieresis" unicode="&#xff;" horiz-adv-x="460" 
d="M414 462h46l-310 -732h-46l111 262l-221 470h47l196 -418zM135 676c23 0 41 -18 41 -41s-18 -41 -41 -41s-41 18 -41 41s18 41 41 41zM321 676c23 0 41 -18 41 -41s-18 -41 -41 -41s-41 18 -41 41s18 41 41 41z" />
    <glyph glyph-name="Zcaron" unicode="&#x17d;" horiz-adv-x="568" 
 />
    <glyph glyph-name="zcaron" unicode="&#x17e;" horiz-adv-x="480" 
 />
    <glyph glyph-name="Lacute" unicode="&#x139;" horiz-adv-x="327" 
 />
    <glyph glyph-name="uring" unicode="&#x16f;" horiz-adv-x="472" 
 />
    <glyph glyph-name="Udoubleacute" horiz-adv-x="660" 
 />
  </font>
</defs>
</svg>
